<?xml version="1.0"?><svg width="744.09448819" height="1052.3622047" xmlns="http://www.w3.org/2000/svg">

 <metadata id="metadata7">image/svg+xmlOil refinaryOil refinary drill well petroleum</metadata>
 <g>
  <title>Layer 1</title>
  <g id="layer1">
   <path fill="#000000" id="path2396" d="m18.571421,564.109436l0,-81.776306l8.01729,0c9.99165,0 9.969139,-0.778839 -0.3426,-11.860687c-8.3211,-8.942627 -8.35144,-9.170959 -6.545341,-49.267334c2.04451,-45.38855 3.66493,-52.285522 11.78557,-50.161926c12.771339,3.339783 14.39901,-1.968292 13.238911,-43.174377c-0.607719,-21.586334 -3.072041,-48.649567 -5.476261,-60.140503c-2.599461,-12.424072 -3.171349,-21.634308 -1.410877,-22.722305c1.741158,-1.076111 1.040508,-9.044083 -1.701233,-19.346802c-9.432718,-35.445419 -9.24605,-35.600067 48.771851,-40.402802c26.129478,-2.16301 69.515587,-4.971481 96.413567,-6.241043l48.905426,-2.308334l0,19.726181c0,10.849365 1.276993,19.726135 2.837769,19.726135c1.560776,0 27.897552,-12.083847 58.526184,-26.852997c30.628601,-14.76915 66.375183,-31.515518 79.436829,-37.214172c13.061646,-5.698654 28.894531,-13.251572 35.184174,-16.784241c6.289612,-3.532669 19.634674,-7.581985 29.65564,-8.998444c12.775635,-1.805809 27.17688,-7.587936 48.195587,-19.350609c16.486603,-9.226418 35.387329,-19.491287 42.001587,-22.810867c8.018921,-4.024582 12.025879,-8.224609 12.025879,-12.605286c0,-3.613297 3.766235,-12.996246 8.369446,-20.850967c5.553528,-9.47646 7.908264,-17.423321 6.998657,-23.620289c-1.135925,-7.74011 -0.051453,-9.67013 6.334473,-11.272881c12.137695,-3.04638 20.872742,1.006969 18.848755,8.746469c-2.008667,7.681299 4.020325,20.664259 13.637878,29.36804c3.708191,3.35585 6.742188,8.809391 6.742188,12.118992c0,3.309601 2.164673,6.848106 4.810364,7.86335c2.645691,1.015282 4.810364,5.692047 4.810364,10.392868c0,4.825989 4.327393,13.796883 9.939819,20.605698c6.41925,7.787674 10.499634,16.84935 11.520386,25.584274c0.869324,7.439026 3.492371,17.854843 5.829102,23.146255c2.336731,5.291397 5.237488,14.964279 6.446167,21.495316l2.197632,11.874603l20.516357,-1.915878c25.80835,-2.410004 27.777466,3.340546 3.039551,8.876648c-9.612305,2.151123 -18.075378,5.501617 -18.806824,7.445541c-0.731384,1.943909 -0.319458,15.079269 0.915466,29.189682c1.234924,14.110428 1.871216,27.819962 1.414124,30.465683c-0.457153,2.645691 -0.941589,8.012085 -1.076538,11.925293c-0.170959,4.957672 -1.703857,6.555206 -5.055725,5.268982c-3.794678,-1.456177 -4.810364,0.935028 -4.810364,11.324829c0,15.50473 6.210449,17.99527 6.853088,2.748291c0.241577,-5.732361 2.293091,6.173309 4.558777,26.457031c2.265747,20.283752 5.126526,40.141541 6.3573,44.128448c1.881653,6.095245 0.645691,7.803955 -7.765686,10.736206c-9.482239,3.305481 -10.003479,4.362183 -10.003479,20.277039c0,9.234406 0.733826,17.523682 1.630737,18.420593c0.896912,0.896912 2.336426,41.82959 3.199036,90.961548c0.862549,49.131958 2.674011,90.436584 4.025513,91.788025c1.35144,1.351501 18.311584,2.8703 37.689087,3.375122l35.231873,0.917908l0.942261,23.250122l0.9422,23.250122l-352.90094,0l-352.900991,0l0,-81.776245zm171.092154,32.87085c5.088181,-7.177795 5.141388,-7.182007 10.172272,-0.801758c5.011597,6.355835 5.11319,6.34137 11.239456,-1.603455c3.400162,-4.409485 6.214233,-9.099609 6.253448,-10.422424c0.039215,-1.322876 2.458237,-2.405212 5.375565,-2.405212c4.783447,0 5.100204,-4.486816 3.22612,-45.698486c-6.404282,-140.831055 -9.649261,-206.151093 -10.283936,-207.010529c-0.392456,-0.531494 -14.887207,5.700928 -32.210495,13.849792c-30.631302,14.408936 -58.721916,22.567932 -62.506325,18.155121c-1.026527,-1.196991 -6.507469,-20.105804 -12.179863,-42.019562l-10.313423,-39.843201l8.604149,-6.860687c7.368294,-5.875305 8.081314,-7.837555 4.964294,-13.661774c-2.001915,-3.740616 -3.639809,-10.418549 -3.639809,-14.83992c0,-4.421387 -1.202148,-8.781815 -2.671425,-9.68988c-1.469284,-0.908066 -12.749596,-0.806137 -25.067352,0.226563l-22.39592,1.877579l0.631439,62.26944c0.347309,34.248169 1.60429,63.242249 2.79332,64.431274c1.189018,1.189056 3.50441,0.039001 5.145287,-2.555603c2.25882,-3.571716 2.995392,-2.551056 3.032562,4.202148c0.0271,4.92038 2.198753,9.744537 4.843498,10.75943c3.630409,1.393127 4.309486,4.872284 2.797035,14.330475c-1.658073,10.36911 -1.078514,12.490692 3.412155,12.490692c2.975243,0 4.517609,1.443115 3.427521,3.206909c-1.090065,1.763794 -6.226128,3.206909 -11.413437,3.206909c-9.068611,0 -13.248501,6.883148 -6.65464,10.958405c1.527229,0.943909 2.138466,5.055481 1.358261,9.136871c-1.042534,5.453674 0.690544,8.549438 6.538124,11.678986c4.376152,2.342072 9.43766,3.342987 11.247765,2.224274c5.25386,-3.24707 7.568726,3.733551 3.660049,11.036987c-4.211571,7.869415 1.456459,17.282227 8.726723,14.492401c5.719498,-2.194794 9.336578,7.145569 4.601013,11.881134c-5.02565,5.025635 -4.553619,11.970673 0.81366,11.970673c7.276077,0 8.46035,19.137756 1.455017,23.512634c-3.245781,2.027039 -5.90139,6.056274 -5.90139,8.953918c0,2.897583 -2.679092,5.968933 -5.953514,6.825256c-8.370872,2.189026 -13.746628,18.701843 -8.447586,25.948669c3.767899,5.152893 4.457504,5.17627 9.317497,0.316345c2.905403,-2.905396 7.553947,-4.363708 10.41288,-3.266602c4.684937,1.797729 4.648102,2.552368 -0.396568,8.126648c-5.812309,6.422546 -4.35865,12.962891 2.881149,12.962891c2.32563,0 5.955978,2.081543 8.067436,4.625732c2.621429,3.158569 9.965973,4.538879 23.156715,4.351807c16.924316,-0.239929 20.172531,0.736572 26.21759,7.882202c6.085251,7.193054 11.971161,10.924194 18.534683,11.749268c1.107727,0.139282 4.315765,-2.993774 7.128998,-6.962341zm105.130219,-60.129639c41.694977,-166.477264 46.83136,-191.792999 46.327332,-228.334503c-0.260315,-18.873993 -1.415894,-35.258881 -2.567932,-36.410919c-1.152008,-1.152039 -15.533997,4.406555 -31.9599,12.352386c-16.425934,7.945862 -39.410278,18.739685 -51.076355,23.986328c-11.666061,5.246643 -22.082077,10.9487 -23.146683,12.671265c-1.06459,1.722534 -0.611557,28.238708 1.00676,58.924805c1.618301,30.686096 4.647003,88.262878 6.730438,127.948425c4.515427,86.010162 6.025665,90.710663 28.603241,89.027069l11.224182,-0.836975l14.858917,-59.327881zm25.655212,57.768188c5.79422,-0.029968 8.984467,-2.10675 10.163696,-6.616211c1.590637,-6.082581 0.483185,-6.500854 -14.858795,-5.612061c-14.709808,0.852112 -16.699615,1.82373 -17.661011,8.623596c-0.938812,6.640381 -0.082764,7.395325 6.413849,5.655884c4.123505,-1.104065 11.297516,-2.0271 15.942261,-2.051208zm318.73642,-79.208313c-1.466797,-51.006531 -3.733398,-84.556549 -5.952576,-88.110046c-2.683838,-4.297485 -2.59729,-6.725128 0.344543,-9.666931c4.158997,-4.159058 5.146606,-21.824066 1.897827,-33.94809c-1.110535,-4.144653 -5.342163,-8.10379 -9.878357,-9.24231c-6.977173,-1.75116 -7.768005,-3.392853 -6.548584,-13.594299c0.762817,-6.381439 -0.183838,-14.316589 -2.103699,-17.633698c-2.612549,-4.513794 -2.482239,-6.396301 0.517944,-7.482819c2.204712,-0.798431 4.008606,-6.300476 4.008606,-12.226807c0,-7.249298 2.164795,-12.291382 6.615723,-15.408936c5.289795,-3.705109 6.414612,-7.427856 5.612122,-18.574524l-1.003662,-13.940674l-13.695251,1.004639l-13.695313,1.004639l-8.251038,-18.689758c-4.538086,-10.279343 -10.804504,-24.462173 -13.925354,-31.51738c-3.12085,-7.055206 -9.558105,-23.164307 -14.304871,-35.798004l-8.630615,-22.970352l-19.869751,9.018494c-61.760529,28.031815 -89.41684,42.014725 -96.289032,48.683167c-4.23996,4.114288 -10.41687,9.0746 -13.72644,11.022964c-5.376678,3.165268 -5.512299,4.151001 -1.273834,9.258041c4.272705,5.148285 9.522369,5.567429 52.891907,4.223083c26.481628,-0.820862 43.819031,-0.467621 38.527649,0.785004c-5.291382,1.25264 -15.753937,2.448242 -23.250122,2.656952c-13.366211,0.372101 -13.629364,0.59613 -13.629364,11.603607c0,10.971527 -0.291046,11.224182 -12.928284,11.224182c-15.51413,0 -17.095062,3.006805 -12.662292,24.082489c1.851349,8.802185 3.719818,18.16861 4.15213,20.814301c0.432312,2.645721 2.811371,14.551392 5.286743,26.457062c4.329803,20.824524 4.860565,21.646637 13.975983,21.646637l9.47525,0l-2.203491,-21.507477c-1.211945,-11.829102 -3.645966,-23.245514 -5.408936,-25.369781c-2.147644,-2.587738 -2.093811,-4.549408 0.163147,-5.944275c7.3237,-4.526276 7.274963,-4.887543 28.015442,207.665802c3.060852,31.368347 6.371826,58.338623 7.357788,59.933899c3.077148,4.978882 19.300476,7.057495 67.352173,8.629456c25.550049,0.835815 47.076416,2.141479 47.836426,2.901428c6.571228,6.571228 7.362854,-5.759216 5.199463,-80.989685zm-174.444366,71.969788c1.106659,-1.724792 1.500092,-5.501648 0.874268,-8.393066c-0.625824,-2.891357 -3.332611,-29.06842 -6.015137,-58.171143c-2.9646,-32.163055 -10.538879,-80.534424 -19.314026,-123.344543c-7.940186,-38.736725 -14.436737,-71.85614 -14.436737,-73.598633c0,-9.517792 -6.414459,6.24646 -12.281738,30.183685c-32.129364,131.081482 -32.998505,137.784119 -27.321808,210.703033l2.047882,26.305542l16.37265,1.242615c22.684174,1.721619 57.648438,-1.14624 60.074646,-4.92749zm-369.20372,-9.029053c0,-1.86792 -1.443108,-2.504272 -3.206909,-1.414185c-1.763802,1.090088 -3.206917,2.618347 -3.206917,3.396179c0,0.777832 1.443115,1.414185 3.206917,1.414185c1.763802,0 3.206909,-1.528259 3.206909,-3.396179zm243.807114,-23.060852c1.944733,-7.496155 4.587494,-17.95874 5.872833,-23.250122c2.848877,-11.727844 -0.448608,-133.442047 -3.431824,-126.673065c-1.165985,2.645691 -6.696075,24.292358 -12.289001,48.103699c-5.592926,23.81131 -14.184143,59.528351 -19.091644,79.371063l-8.922607,36.07782l17.163208,0l17.163239,0l3.535797,-13.629395zm164.648926,-51.588348c-1.12738,-8.225311 -3.451172,-14.955109 -5.16394,-14.955109c-1.712769,0 -2.322784,2.062195 -1.355591,4.582642c0.967194,2.520447 2.737915,9.803284 3.934967,16.184082c3.088593,16.463623 5.037201,12.082092 2.584564,-5.811615zm-453.352818,-39.034119c0,-13.655518 -0.356102,-14.235901 -6.41383,-10.452789c-7.158211,4.470398 -8.038929,7.493591 -3.076462,10.560577c1.835541,1.13443 2.459873,4.827362 1.387352,8.206543c-1.355282,4.270142 -0.41703,6.143951 3.076488,6.143951c3.82074,0 5.026451,-3.46814 5.026451,-14.458282zm448.967869,-4.170258c0,-18.042236 -6.322449,-33.842438 -11.47876,-28.686096c-3.166016,3.165985 4.824097,47.314636 8.56311,47.314636c1.603607,0 2.915649,-8.382843 2.915649,-18.62854zm-419.93325,-3.345947c-1.600121,-2.906342 -5.13385,-8.170502 -7.852707,-11.69809c-4.641449,-6.022156 -4.949585,-5.381165 -5.045334,10.496368l-0.102005,16.910248l7.954674,-5.212128c5.985252,-3.921661 7.234413,-6.520355 5.045372,-10.496399zm-30.775009,-19.936981c-1.014771,-1.641907 -4.921909,-2.985321 -8.682529,-2.985321c-6.672718,0 -6.688339,0.10907 -0.647831,4.52597c6.42223,4.696075 12.558632,3.6828 9.33036,-1.540649zm-2.73592,-18.151367c-1.06562,-1.065613 -1.823578,0.828491 -1.68433,4.209076c0.1539,3.735901 0.91378,4.495789 1.937519,1.937531c0.92638,-2.315002 0.812443,-5.080933 -0.253189,-6.146606zm448.497677,-14.885284c-2.656586,-26.500763 -3.204712,-27.673096 -12.938507,-27.673096c-7.173859,0 -8.191284,1.100983 -6.667816,7.215546c0.98877,3.968567 2.785339,13.709564 3.992371,21.646667c2.558716,16.825439 6.346283,22.779144 12.893066,20.266907c3.722809,-1.428589 4.284515,-5.858124 2.720886,-21.456024zm-447.228287,-16.448914c0,-4.988525 -1.81723,-8.017273 -4.81036,-8.017273c-5.773289,0 -6.312908,6.835419 -0.962078,12.186279c5.308147,5.308105 5.772438,4.972778 5.772438,-4.169006zm349.258011,-73.275848c-3.592987,-4.319397 -15.21463,0.829987 -17.397858,7.70874c-1.092865,3.443237 -0.933868,18.161316 0.353302,32.706848l2.340302,26.446442l8.484955,-32.069153c4.666748,-17.638 7.465424,-33.2948 6.219299,-34.792877zm14.726685,-30.948822c4.837524,-2.078766 2.867157,-2.756134 -8.017273,-2.756134c-7.937134,0 -17.317352,1.240234 -20.84494,2.756134c-4.837555,2.078735 -2.867188,2.756104 8.017273,2.756104c7.937103,0 17.317322,-1.240234 20.84494,-2.756104zm68.948639,-12.827667c0,-1.763794 -1.73175,-3.206909 -3.848297,-3.206909c-2.993103,0 -2.993103,-0.855194 0,-3.848297c7.122589,-7.12262 3.939636,-8.979355 -15.393188,-8.979355c-18.204407,0 -25.434113,4.238815 -14.431122,8.461014c2.645721,1.015289 4.810364,3.856201 4.810364,6.313202c0,3.156586 4.234009,4.467255 14.431122,4.467255c7.937103,0 14.431122,-1.443085 14.431122,-3.206909zm-282.475647,-40.472198c0.73494,-0.669724 -7.562958,-1.217667 -18.439743,-1.217667c-18.579727,0 -19.77594,0.452621 -19.77594,7.482788c0,4.115555 0.897324,8.380112 1.994019,9.476837c1.620285,1.6203 31.345322,-11.298233 36.221664,-15.741959z"/>
  </g>
 </g>
</svg>